<?xml version="1.0" encoding="utf-8"?>
<!-- Generator: Adobe Illustrator 24.3.0, SVG Export Plug-In . SVG Version: 6.00 Build 0)  -->
<svg version="1.1" id="Layer_1" xmlns="http://www.w3.org/2000/svg" xmlns:xlink="http://www.w3.org/1999/xlink" x="0px" y="0px"
	 viewBox="0 0 432 648" style="enable-background:new 0 0 432 648;" xml:space="preserve">
<style type="text/css">
	.st0{display:none;}
	.st1{display:inline;}
	.st2{display:inline;fill:#AADBFB;}
	.st3{fill:none;}
	.st4{fill:#AADBFB;stroke:#85C2F9;stroke-miterlimit:10;}
	.st5{fill:#AADBFB;}
	.st6{display:none;fill:#85C2F9;}
	.st7{fill:#FFFFFF;}
	.st8{fill:#304298;}
	.st9{fill:#223466;}
	.st10{fill:#405CC6;}
	.st11{fill:#84B8D9;stroke:#2E78A6;stroke-miterlimit:10;}
	.st12{fill:#2E78A6;}
	.st13{fill:#84B8D9;}
	.st14{fill:#414042;}
	.st15{fill:#231F20;}
</style>
<g id="Layer_4_copy" class="st0">
	<g id="Layer_3_copy" class="st1">
		<g class="st0">
			<path class="st2" d="M68.1,202.4c11.9,0,19.5,10.8,23.1,32.3v3.1c0,20.4-4.6,34.2-13.8,41.5v3.1c6.5,0,11.2,7.7,13.8,23v1.5
				c0,9.7-7.2,15.3-21.5,16.9H58.9c-7.2-2.1-10.7-5.7-10.7-10.8v-39.9c0-9.1-0.5-19.4-1.6-30.8C46.5,215.8,53.7,202.4,68.1,202.4z
				 M57.3,243.9v15.4c0,3.6-0.5,8.2-1.6,13.8c1,3.1,2.1,4.6,3.1,4.6c14.4-3.8,21.5-16.1,21.5-36.9v-1.6
				c-1.8-16.4-7.4-24.6-16.9-24.6C59.4,214.7,57.3,224.5,57.3,243.9z M55.8,294.6v18.4c2.4,0,10-1,23-3v-4.6
				c0-9.2-6.2-13.8-18.4-13.8h-1.5C56.8,291.9,55.8,292.9,55.8,294.6z"/>
			<path class="st2" d="M128.3,210.1h3c7.2,3.8,10.8,14,10.8,30.8v12.2c0,46.1-8.2,69.2-24.6,69.2h-3c-13.3,0-20-14.8-20-44.5
				c0-37,7.2-58,21.5-63C121.1,211.7,125.2,210.1,128.3,210.1z M114.4,222.4c-3.8,0-7.4,16.9-10.8,50.8c0,24.6,5.1,36.9,15.4,36.9
				c5.5,0,9.6-18.4,12.2-55.3c0-21.6-4.1-32.3-12.2-32.3L114.4,222.4L114.4,222.4z"/>
			<path class="st2" d="M176.1,202.4c8.2,1,12.3,2.6,12.3,4.6c0,5.3-1.5,8.4-4.6,9.2h-15.4c0,68.7-2,103-6.1,103l-3.1,1.5l-3-1.5
				c1-31.3,1.5-54.3,1.5-69.2v-7.7c0-5.4,0.5-14.1,1.5-26.1c-9.2-1-13.8-2.6-13.8-4.6v-3.1c1.1-3.1,4.1-4.6,9.2-4.6H170
				C172.2,203.9,174.3,203.4,176.1,202.4z"/>
			<path class="st2" d="M222.4,202.4c8.2,1,12.3,2.6,12.3,4.6c0,5.3-1.5,8.4-4.6,9.2h-15.4c0,68.7-2,103-6.1,103l-3.1,1.5l-3-1.5
				c1-31.3,1.5-54.3,1.5-69.2v-7.7c0-5.4,0.5-14.1,1.5-26.1c-9.2-1-13.8-2.6-13.8-4.6v-3.1c1.1-3.1,4.1-4.6,9.2-4.6h15.4
				C218.6,203.9,220.6,203.4,222.4,202.4z"/>
			<path class="st2" d="M245.6,208.5h4.6c0,1.1,0.5,2.6,1.5,4.6c-2,35.8-3,66.1-3,90.7l3,1.6h16.9c2.1,0.3,3.1,1.3,3.1,3v4.6
				c-1.7,4.1-5.3,6.2-10.8,6.2h-9.2c-9.2-1.4-13.8-6-13.8-13.8C237.9,252,240.5,219.7,245.6,208.5z"/>
			<path class="st2" d="M304.3,207c7.2,1.4,10.7,3.4,10.7,6.1c0,3.1-6.6,5.1-20,6.2c-4.1,0-6.7,18.9-7.7,56.8c12.2-2,19.4-3,21.5-3
				l3,4.6v1.5c0,4.7-8.2,7.8-24.6,9.2l-1.5,3.1v13.8c0,1.7,9.2,3.7,27.7,6.1l1.5,3.1l-7.7,7.6c-21.5,0-32.3-4.6-32.3-13.8v-1.5
				c1.5-65.6,7.7-98.4,18.4-98.4L304.3,207z"/>
			<path class="st2" d="M341,205.5c6.1,2.3,9.2,7.4,9.2,15.4c-1.5,4.1-3.1,6.1-4.6,6.1c-3.1-3.9-4.6-7-4.6-9.2h-4.6
				c-8.2,6.5-12.3,15.8-12.3,27.7c2.4,6.1,4.5,9.2,6.2,9.2h12.2c8.6,0,14.2,7.2,16.9,21.5c-2.7,19.7-7.5,32-14.3,37
				s-10.8,7.5-11.8,7.5h-1.5c-7.8,0-12.4-5.1-13.8-15.4c0.7-6.1,2.2-9.2,4.6-9.2h4.6c1,7.2,2.5,10.7,4.6,10.7h3.1
				c9.2-10.9,13.8-20.7,13.8-29.2c-0.8-8.2-4.9-12.3-12.3-12.3h-10.7c-4.5,0-8.1-7.2-10.8-21.5c1.6-15.3,4.6-25.7,9-31.1
				C328.3,207.4,334,205,341,205.5z"/>
		</g>
		<g>
			<path class="st3" d="M53.5,370.1c0,0,19.5-0.1,26.3-2.6c3.3-1.2,5.5-4.6,8.5-8v0.3c5.1-10.5,34-33.4,56.6-34.1
				c22.6-0.7,151.4,9.4,163.3,8c11.9-1.5,37.1,0,37.1,0s12.5,0,12.2,13.1"/>
			<path class="st4" d="M115.1,263c6.8-2,12.9,2.9,18.5,14.5l0.5,1.8c3.4,11.6,3.1,20.3-1,25.9l0.5,1.8c3.7-1.1,7.6,2.5,11.7,10.8
				l0.2,0.9c1.6,5.5-1.6,9.9-9.4,13.2l-6.1,1.8c-4.4,0-7.1-1.4-7.9-4.4l-6.6-22.7c-1.5-5.2-3.5-11-6-17.2
				C105.1,274.2,107,265.4,115.1,263z M115.9,288.5l2.6,8.8c0.6,2.1,1.1,4.8,1.4,8.1c1.1,1.6,1.9,2.3,2.5,2.1
				c7.5-4.5,9.6-12.7,6.1-24.6l-0.3-0.9c-3.7-9-8.3-12.8-13.7-11.2C112.2,271.5,112.7,277.4,115.9,288.5z M123.4,317.6l3.1,10.5
				c1.3-0.4,5.6-2.2,12.6-5.5l-0.8-2.6c-1.5-5.2-5.8-6.9-12.8-4.8l-0.9,0.2C123.6,315.9,123.2,316.6,123.4,317.6z"/>
			<path class="st4" d="M175.3,259.2l1.8,0.1c4.2,2.4,6.1,8.6,5.7,18.5l-0.3,7.3c-1.1,27.3-6.5,40.8-16.3,40.4l-1.8-0.1
				c-7.9-0.3-11.5-9.3-10.8-26.9c0.9-21.9,5.7-34.2,14.3-36.8C171,260,173.5,259.1,175.3,259.2z M166.8,266.1
				c-2.2-0.1-4.8,9.9-7.6,29.8c-0.6,14.6,2.1,22,8.2,22.2c3.2,0.1,6.1-10.7,8.6-32.5c0.5-12.8-1.6-19.3-6.5-19.5L166.8,266.1z"/>
			<path class="st4" d="M212.9,256.8c4.8,0.9,7.2,2,7.1,3.2c-0.2,3.1-1.2,4.9-3.1,5.3l-9.1-0.5c-2.4,40.7-4.9,60.9-7.3,60.8
				l-1.9,0.8l-1.7-1c1.7-18.5,2.8-32.1,3.4-40.9l0.3-4.6c0.2-3.2,0.8-8.3,1.8-15.4c-5.4-0.9-8.1-2-8-3.2l0.1-1.8
				c0.7-1.8,2.6-2.6,5.6-2.4l9.1,0.5C210.6,257.6,211.8,257.4,212.9,256.8z"/>
			<path class="st4" d="M248.4,259c4.8,0.9,7.2,2,7.1,3.2c-0.2,3.1-1.2,4.9-3.1,5.3l-9.1-0.6c-2.5,40.6-5,60.9-7.4,60.8l-1.9,0.8
				l-1.7-1c1.7-18.5,2.9-32.1,3.4-40.9l0.3-4.6c0.2-3.2,0.8-8.3,1.9-15.4c-5.4-0.9-8.1-2-8-3.2l0.1-1.8c0.7-1.8,2.6-2.6,5.6-2.4
				l9.1,0.6C246.1,259.8,247.3,259.5,248.4,259z"/>
			<path class="st4" d="M269.4,263.9l2.7,0.1c0,0.6,0.2,1.6,0.8,2.8c-2.4,21.1-4,39-4.8,53.6l1.7,1l10,0.5c1.2,0.2,1.8,0.9,1.7,1.9
				l-0.1,2.7c-1.1,2.4-3.3,3.5-6.6,3.3l-5.5-0.3c-5.4-1.1-8-4-7.7-8.6C263.4,289.4,266,270.4,269.4,263.9z"/>
			<path class="st4" d="M312.1,264.9c4.2,1,6.3,2.3,6.2,3.9c-0.1,1.8-4.1,2.9-12,3.2c-2.5-0.1-4.5,11.1-6,33.5
				c7.3-0.9,11.6-1.3,12.8-1.2l1.7,2.8l0,0.9c-0.1,2.8-5,4.4-14.8,4.8l-1,1.8l-0.4,8.2c0,1,5.4,2.4,16.2,4.3l0.8,1.9l-4.8,4.3
				c-12.8-0.5-19-3.6-18.8-9l0-0.9c2.6-38.8,7.1-58.1,13.4-57.8L312.1,264.9z"/>
			<path class="st4" d="M349.2,266.4c3.3,2,4.5,5.4,3.6,10c-1.4,2.2-2.5,3.2-3.4,3c-1.3-2.6-1.9-4.6-1.6-5.9l-2.7-0.5
				c-5.5,2.9-9,7.8-10.3,14.8c0.7,3.9,1.6,5.9,2.6,6.1l7.1,1.4c5,1,7.5,5.8,7.4,14.4c-3.8,11.1-8,17.8-12.5,20
				c-4.5,2.2-7.1,3.2-7.7,3l-0.9-0.2c-4.5-0.9-6.7-4.4-6.3-10.5c1.1-3.5,2.3-5.1,3.7-4.9l2.7,0.5c-0.2,4.3,0.3,6.5,1.5,6.8l1.8,0.4
				c6.6-5.3,10.4-10.5,11.4-15.4c0.5-4.9-1.4-7.7-5.8-8.6l-6.2-1.2c-2.6-0.5-3.9-5.1-3.9-13.8c2.6-8.7,5.6-14.4,8.8-17.1
				C341.6,266,345.2,265.3,349.2,266.4z"/>
		</g>
	</g>
	<g id="Layer_1_copy" class="st1">
		<path class="st5" d="M144.9,323.7c-22.6,0.7-51.5,23.6-56.6,34.1v-0.3c-3,3.5-5.2,6.8-8.5,8c-6.8,2.5-26.3,2.6-26.3,2.6v21.4
			c0,0,19.5,0.1,26.3,2.6c3.3,1.2,5.5,4.6,8.5,8c9.6,15.2,34,33.1,56.6,33.8c22.6,0.7,151.4-9.4,163.3-8c11.9,1.5,37.1-0.2,37.1-0.2
			s12.5,0,12.2-13.1c-0.3-11.5-96.4-15.7-96.4-15.7v-35.9c0,0,96.1-4.9,96.5-16.4c0.3-13.1-12.2-13.1-12.2-13.1s-25.1-1.5-37.1,0
			C296.3,333.1,167.5,323,144.9,323.7z"/>
		<path class="st5" d="M53.5,368.1v21.4c0,0,19.5,0.1,26.3,2.6c3.3,1.2,5.5,4.6,8.5,8c9.6,15.2,34,33.1,56.6,33.8
			c22.6,0.7,151.4-9.4,163.3-8c11.9,1.5,37.1-0.2,37.1-0.2s12.5,0,12.2-13.1c-0.3-11.5-96.5-15.7-96.5-15.7v-35.9
			c0,0,96.1-4.9,96.5-16.4"/>
		<path class="st6" d="M226.7,172c0,0,0.1,19.5,2.6,26.3c1.2,3.3,4.6,5.5,8,8.5H237c10.5,5.1,33.4,34,34.1,56.6
			c0.7,22.6-9.4,151.4-8,163.3c1.5,11.9,0,37.1,0,37.1s-0.7,11-11,12.1c0.8-3.6,1-12.1,1-12.1s1.5-25.1,0-37.1
			c-1.4-11.9,8.7-140.7,8-163.3c-0.7-22.6-23.6-51.5-34.1-56.6h0.3c-3.4-3-6.8-5.1-8-8.5c-2.5-6.9-2.6-26.3-2.6-26.3H226.7z"/>
		<path class="st7" d="M157.7,347.1c21.4,0,37.6,12.5,37.6,12.5v19.2l0,19c0,0-16.7,12.7-37.7,12.7c-26.4,0-47.8-8.2-47.8-31.7
			C109.9,352.6,131.3,347.1,157.7,347.1z"/>
		<path class="st7" d="M265.4,354.4v48.8c0,4-3.3,7.3-7.3,7.3l0,0c-4,0-7.3-3.3-7.3-7.3v-48.8c0-4,3.3-7.3,7.3-7.3l0,0
			C262.1,347.1,265.4,350.4,265.4,354.4z"/>
		<rect x="243.7" y="347.1" class="st7" width="14.6" height="63.5"/>
	</g>
	<g id="Layer_2_copy" class="st1">
		<g>
			<path class="st8" d="M57.3,372.9v12c0,6-2.8,6.3-6.3,6.3h-1.5c-3.5,0-6.3,0-6.3-6.3v-12c0-6.3,2.8-6.3,6.3-6.3H51
				C54.5,366.6,57.3,366.9,57.3,372.9z"/>
			<path class="st8" d="M61.1,368.2v21.2c0,0.5-0.4,0.9-0.9,0.9h-0.4c-0.5,0-0.9-0.4-0.9-0.9v-21.2c0-0.5,0.4-0.9,0.9-0.9h0.4
				C60.7,367.3,61.1,367.7,61.1,368.2z"/>
			<g>
				<rect x="44.6" y="386.8" class="st9" width="12.2" height="1.6"/>
				<rect x="44.6" y="383.4" class="st9" width="12.2" height="1.6"/>
				<rect x="44.6" y="379.5" class="st9" width="12.2" height="1.6"/>
				<rect x="44.6" y="375.7" class="st9" width="12.2" height="1.6"/>
				<rect x="44.6" y="372.2" class="st9" width="12.2" height="1.6"/>
				<rect x="44.6" y="369.4" class="st9" width="12.2" height="1.6"/>
			</g>
			<path class="st10" d="M44.9,369.4v18.9c0,0.2-0.2,0.5-0.5,0.5l0,0c-0.2,0-0.5-0.2-0.5-0.5v-18.9c0-0.2,0.2-0.5,0.5-0.5l0,0
				C44.7,369,44.9,369.2,44.9,369.4z"/>
		</g>
	</g>
</g>
<g id="Layer_4">
	<g id="Layer_3">
	</g>
	<g id="Layer_1_1_">
	</g>
	<g id="Layer_2_1_">
		<g>
			<g class="st0">
				<path class="st2" d="M485.6,55.1c0,24-21.7,39.5-65.2,46.6h-6.2c-41.3,0-69.2-9.3-83.9-27.9h-6.2c0,13.2-15.5,22.5-46.6,27.9
					h-3.1c-19.5,0-30.9-14.5-34.2-43.5V36.5c4.2-14.5,11.4-21.7,21.8-21.7h80.6c18.5,0,39.2-1.1,62.1-3.2
					C458.7,11.6,485.6,26.1,485.6,55.1z M299.3,30.2h-37.3c0,4.8,2,20.3,6.1,46.6h9.3c18.6,0,28-12.4,28-37.3v-3.1
					C304.8,32.3,302.8,30.2,299.3,30.2z M401.8,33.5h-31.1c-7.4,0-16.7-1.1-28-3.2c-6.2,2.1-9.3,4.2-9.3,6.3
					c7.6,29,32.5,43.5,74.5,43.5h3.2c33.1-3.6,49.6-14.9,49.6-34.2C460.8,37.6,441.1,33.5,401.8,33.5z"/>
				<path class="st2" d="M470.1,176.8v6.1c-7.6,14.6-28.4,21.8-62.1,21.8h-24.8c-93.2,0-139.8-16.6-139.8-49.8v-6.1
					c0-27,30-40.5,90-40.5c74.7,0,117.2,14.5,127.4,43.5C467,162.3,470.1,170.6,470.1,176.8z M445.3,148.8
					c0-7.6-34.2-14.9-102.6-21.8c-49.7,0-74.5,10.4-74.5,31.1c0,11.1,37.3,19.3,111.8,24.8c43.6,0,65.4-8.2,65.4-24.8L445.3,148.8
					L445.3,148.8z"/>
				<path class="st2" d="M485.6,273.4c-2,16.6-5.1,24.9-9.3,24.9c-10.7,0-17-3.1-18.6-9.3v-31.1c-138.8,0-208.2-4.1-208.2-12.4
					l-3.1-6.3l3.1-6.1c63.2,2,109.8,3.1,139.8,3.1h15.6c10.9,0,28.5,1,52.8,3.1c2-18.6,5.1-27.9,9.3-27.9h6.2
					c6.2,2.1,9.3,8.3,9.3,18.6V261C482.6,265.6,483.6,269.8,485.6,273.4z"/>
				<path class="st2" d="M485.6,367c-2,16.6-5.1,24.9-9.3,24.9c-10.7,0-17-3.1-18.6-9.3v-31.1c-138.8,0-208.2-4.1-208.2-12.4
					l-3.1-6.3l3.1-6.1c63.2,2,109.8,3.1,139.8,3.1h15.6c10.9,0,28.5,1,52.8,3.1c2-18.6,5.1-28,9.3-28h6.2c6.2,2.1,9.3,8.3,9.3,18.6
					v31.1C482.6,359.2,483.6,363.3,485.6,367z"/>
				<path class="st2" d="M473.3,414v9.3c-2.2,0-5.3,1-9.3,3.1c-72.4-4.1-133.5-6.1-183.3-6.1l-3.2,6.1v34.2
					c-0.6,4.2-2.7,6.3-6.1,6.3H262c-8.3-3.4-12.5-10.6-12.5-21.8v-18.6c2.8-18.6,12.1-28,27.9-28C385.5,398.4,450.7,403.6,473.3,414
					z"/>
				<path class="st2" d="M476.3,532.4c-2.8,14.5-7,21.7-12.4,21.7c-6.2,0-10.4-13.4-12.5-40.3c0-8.3-38.3-13.5-114.9-15.6
					c4.1,24.7,6.1,39.2,6.1,43.5l-9.3,6.1h-3.1c-9.6,0-15.8-16.5-18.6-49.6l-6.2-3.1h-28c-3.4,0-7.5,18.6-12.4,55.9l-6.3,3.1
					l-15.4-15.6c0-43.5,9.3-65.2,28-65.2h3.1c132.6,3.1,198.8,15.5,198.8,37.3L476.3,532.4z"/>
				<path class="st2" d="M479.4,606.5c-4.7,12.4-15,18.6-31,18.6c-8.2-3.1-12.4-6.2-12.4-9.3c8-6.2,14.2-9.3,18.6-9.3v-9.3
					c-13.2-16.6-31.9-24.9-56-24.9c-12.4,4.9-18.6,9-18.6,12.5v24.8c0,17.4-14.5,28.8-43.4,34.2c-39.8-5.5-64.7-15.2-74.9-29
					s-15.2-21.8-15.2-23.9v-3.1c0-15.8,10.3-25.1,31-28c12.4,1.3,18.6,4.4,18.6,9.3v9.3c-14.5,2-21.7,5.1-21.7,9.3v6.2
					c22.1,18.6,41.8,28,59,28c16.6-1.5,24.9-9.8,24.9-24.9v-21.7c0-9,14.5-16.3,43.5-21.8c31,3.2,51.9,9.3,62.8,18.2
					C475.5,580.9,480.5,592.4,479.4,606.5z"/>
			</g>
			<g>
				<path class="st11" d="M142.7,25.7c0,0,0.3,39.4,5.2,53.2c2.4,6.7,9.2,11.2,16.2,17.1h-0.6c21.2,10.2,67.5,68.7,69,114.3
					c1.5,45.7-19,305.9-16.1,330c2.9,24.1,0,74.9,0,74.9s0,25.3-26.4,24.7"/>
				<path class="st11" d="M352.4,62.5c3.8,17.4-9.6,32-40,44l-4.5,1c-29.9,6.5-51.6,4.1-65.1-7.1l-4.5,1c2.1,9.6-7.7,18.8-29.4,27.5
					l-2.2,0.5c-14.1,3.1-24.7-5.7-31.6-26.2l-3.4-15.7c0.8-11.1,4.9-17.5,12.4-19.1l58.4-12.6c13.4-2.9,28.2-6.9,44.5-12
					C326.1,35.2,347.9,41.5,352.4,62.5z M213.5,73.6l-27,5.8c0.8,3.5,4.7,14.4,11.7,32.8l6.8-1.5c13.5-2.9,18.3-13.4,14.4-31.4
					l-0.5-2.2C217.8,74.3,216,73.1,213.5,73.6z M288.3,59.9l-22.6,4.9c-5.3,1.2-12.2,1.8-20.8,2.1c-4.2,2.5-6.1,4.5-5.8,6
					c10.1,19.8,30.3,26.4,60.8,19.9l2.3-0.5c23.4-7.8,33.6-18.6,30.6-32.6C331.6,53.7,316.7,53.7,288.3,59.9z"/>
				<path class="st11" d="M381.5,176.2l0.7,4.5c-3.9,11.5-18.3,19.2-43.1,23l-18.1,2.8c-68.3,10.6-104.3,3.7-108-20.6l-0.7-4.5
					c-3.1-19.8,17.4-33,61.3-39.8c54.7-8.5,87.5-2.6,98.2,17.5C377.6,165.9,380.8,171.6,381.5,176.2z M360.2,158.5
					c-0.9-5.6-26.8-7.1-77.6-4.4c-36.4,5.6-53.4,16-51.1,31.2c1.3,8.1,29.5,9.9,84.7,5.5c31.9-4.9,46.9-13.4,45.1-25.5L360.2,158.5z
					"/>
				<path class="st11" d="M411.8,287.2c-1.9,12.2-4.5,18.3-7.5,18.2c-8-0.3-12.5-2.7-13.6-7.4l0.8-23.1
					c-102.8-3.6-154.1-8.4-153.9-14.5l-2.1-4.7l2.4-4.5c46.8,3.1,81.2,5.1,103.5,5.9l11.5,0.4c8.1,0.3,21.1,1.5,39.1,3.6
					c2-13.8,4.5-20.6,7.6-20.5l4.6,0.2c4.5,1.7,6.7,6.4,6.4,14l-0.8,23.1C409.7,281.4,410.4,284.4,411.8,287.2z"/>
				<path class="st11" d="M406.1,380.4c-2.3,12.2-4.9,18.2-8,18c-8-0.5-12.4-3.1-13.4-7.7l1.4-23c-102.7-6.3-153.8-12.5-153.5-18.6
					l-2-4.8l2.5-4.4c46.6,4.4,81.1,7.2,103.3,8.6l11.5,0.7c8.1,0.5,21.1,2,39,4.7c2.4-13.7,5.1-20.5,8.2-20.3l4.6,0.3
					c4.5,1.9,6.5,6.6,6,14.2l-1.4,23C404.2,374.5,404.7,377.6,406.1,380.4z"/>
				<path class="st11" d="M393.5,434l-0.4,6.9c-1.6-0.1-4,0.5-7,1.9c-53.4-6.1-98.5-10.3-135.4-12.4l-2.6,4.4l-1.5,25.3
					c-0.6,3.1-2.2,4.5-4.8,4.4l-6.9-0.4c-6-2.9-8.8-8.4-8.3-16.7l0.8-13.8c2.8-13.7,10.1-20.2,21.9-19.5
					C329.2,418.7,377.3,425.4,393.5,434z"/>
				<path class="st11" d="M389.5,545.7c-2.9,10.5-6.4,15.6-10.4,15.3c-4.6-0.4-6.9-10.5-6.9-30.5c0.5-6.2-27.5-12.2-84-18.2
					c1.6,18.5,2.2,29.3,2,32.5l-7.2,4l-2.3-0.2c-7.1-0.6-10.7-13.2-10.9-37.8l-4.5-2.6l-20.7-1.6c-2.5-0.2-6.6,13.3-12.4,40.6
					l-4.8,1.9L217,536.6c2.5-32.1,10.7-47.6,24.5-46.6l2.3,0.2c97.8,10,146,23.1,144.8,39.2L389.5,545.7z"/>
				<path class="st11" d="M386.8,633.7c-5.1,8.4-13.5,11.5-25.1,9.4c-5.6-3.4-8.2-6.2-7.8-8.5c6.7-3.4,11.6-4.9,14.8-4.3l1.3-6.8
					c-7.4-13.9-19.9-22.5-37.5-25.8c-9.7,1.9-14.8,4.1-15.3,6.6l-3.4,18c-2.4,12.7-14.5,19-36.3,19c-28.2-9.4-45.1-19.8-50.6-31.3
					c-5.5-11.4-8.1-17.9-7.9-19.5l0.4-2.2c2.1-11.5,10.9-16.9,26.4-16.2c8.9,2.7,13,5.8,12.3,9.3l-1.3,6.8
					c-10.8-0.5-16.5,0.8-17.1,3.8l-0.9,4.6c13.6,16.6,26.6,26,39.2,28.4c12.3,1.2,19.5-3.8,21.5-14.8l3-15.8
					c1.2-6.6,12.8-9.9,34.7-10c22.1,6.5,36.6,13.8,43.3,21.8C387.4,614.5,389.5,623.6,386.8,633.7z"/>
			</g>
			<path class="st12" d="M240.6,210.4c-1.5-45.7-47.8-104.1-69-114.3h0.6c-7-6-13.8-10.4-16.2-17.1c-5-13.8-5.2-53.2-5.2-53.2h-43.3
				c0,0-0.3,39.4-5.2,53.2C99.9,85.6,93.1,90,86.1,96c-30.7,19.5-66.8,68.7-68.3,114.3c-1.5,45.7,19,305.9,16.1,330
				c-2.9,24.1,0.3,74.9,0.3,74.9s0,25.3,26.4,24.7c23.2-0.6,31.7-194.9,31.7-194.9h72.6c0,0,10,194.3,33.1,194.9
				c26.4,0.7,26.4-24.7,26.4-24.7s2.9-50.8,0-74.9C221.5,516.3,242,256.1,240.6,210.4z"/>
			<path class="st12" d="M150.8,25.7h-43.3c0,0-0.3,39.4-5.2,53.2c-2.4,6.7-9.2,11.2-16.2,17.1c-30.7,19.5-66.8,68.7-68.3,114.3
				c-1.5,45.7,19,305.9,16.1,330c-2.9,24.1,0.3,74.9,0.3,74.9s0,25.3,26.4,24.7c23.2-0.6,31.7-194.9,31.7-194.9h72.6
				c0,0,10,194.3,33.1,194.9"/>
			<path class="st6" d="M306.6,35.9c0,0,0.3,39.4,5.2,53.2c2.4,6.7,9.2,11.2,16.2,17.1h-0.6c21.2,10.2,67.5,68.6,69,114.4
				c1.5,45.7-19,305.9-16.1,330c2.9,24.1,0,74.9,0,74.9s-1.3,22.3-22.1,24.5c1.5-7.2,2-24.5,2-24.5s3-50.8,0-74.9
				c-2.9-24.1,17.6-284.3,16.1-330c-1.5-45.7-47.8-104.1-69-114.3h0.6c-7-6-13.8-10.4-16.2-17.1c-5-13.8-5.2-53.2-5.2-53.2
				L306.6,35.9L306.6,35.9z"/>
			<path class="st13" d="M193.3,236.2c0,43.3-25.3,76-25.3,76h-38.9l-38.4,0.1c0,0-25.7-33.8-25.7-76.1c0-53.4,16.6-96.7,64.1-96.7
				C182.1,139.6,193.3,182.9,193.3,236.2z"/>
			<path class="st13" d="M186,453.8H72.4c-4,0-7.3-3.3-7.3-7.3v-14.9c0-4,3.3-7.3,7.3-7.3H186c4,0,7.3,3.3,7.3,7.3v14.9
				C193.3,450.5,190,453.8,186,453.8z"/>
			<rect x="65" y="410" class="st13" width="128.2" height="29.6"/>
			<g>
				<path class="st14" d="M141.2,33.4h-24.1c-12.1,0-12.7-5.7-12.7-12.7v-3c0-7,0-12.7,12.7-12.7h24.1c12.7,0,12.7,5.7,12.7,12.7v3
					C153.9,27.7,153.2,33.4,141.2,33.4z"/>
				<path class="st15" d="M151.6,41.1h-44.8c-0.5,0-0.9-0.4-0.9-0.9v-2.7c0-0.5,0.4-0.9,0.9-0.9h44.8c0.5,0,0.9,0.4,0.9,0.9v2.7
					C152.5,40.7,152.1,41.1,151.6,41.1z"/>
				<g>
					<rect x="109.9" y="7.7" class="st15" width="3.2" height="24.6"/>
					<rect x="116.8" y="7.7" class="st15" width="3.2" height="24.6"/>
					<rect x="124.7" y="7.7" class="st15" width="3.2" height="24.6"/>
					<rect x="132.4" y="7.7" class="st15" width="3.2" height="24.6"/>
					<rect x="139.4" y="7.7" class="st15" width="3.2" height="24.6"/>
					<rect x="144.9" y="7.7" class="st15" width="3.2" height="24.6"/>
				</g>
				<path class="st15" d="M148.2,8.3h-38.2c-0.5,0-0.9-0.4-0.9-0.9l0,0c0-0.5,0.4-0.9,0.9-0.9h38.2c0.5,0,0.9,0.4,0.9,0.9l0,0
					C149.1,7.9,148.7,8.3,148.2,8.3z"/>
			</g>
		</g>
	</g>
</g>
</svg>
